<svg xmlns="http://www.w3.org/2000/svg" viewBox="0 0 333.5 44.22"><g id="Layer_2" data-name="Layer 2"><g id="Layer_2-2" data-name="Layer 2"><path d="M44.38,11.3a8.4,8.4,0,0,0-5.72,2.33V0H33.8V32.92h4.86V22.75q0-3.88,1-5.49a4,4,0,0,1,3.58-1.57,3.46,3.46,0,0,1,2.89,1.13A6,6,0,0,1,47,20.48V32.92H51.9V20c0-2.94-.61-5.08-1.81-6.42A7.42,7.42,0,0,0,44.38,11.3Z"/><path d="M166.45,11.3a10.92,10.92,0,0,0-7.95,3.2,10.51,10.51,0,0,0-3.26,7.77,10.92,10.92,0,0,0,3.19,8.05,10.7,10.7,0,0,0,7.93,3.24,11.11,11.11,0,0,0,8.06-3.18,10.67,10.67,0,0,0,3.26-7.94,10.72,10.72,0,0,0-3.24-7.91A11,11,0,0,0,166.45,11.3ZM171,27.38a6.65,6.65,0,0,1-9.12,0,7.15,7.15,0,0,1-1.68-5,6.76,6.76,0,0,1,1.72-4.8,6.45,6.45,0,0,1,9.08,0,6.94,6.94,0,0,1,1.7,4.9A7,7,0,0,1,171,27.38Z"/><path d="M211.16,11.3a7.31,7.31,0,0,0-6.2,3.11,6.45,6.45,0,0,0-5.64-3.11,5.82,5.82,0,0,0-2.65.54,10.2,10.2,0,0,0-2.4,2V11.94h-4.86v21h4.86V22.06a9.51,9.51,0,0,1,.94-4.84,3.25,3.25,0,0,1,3-1.53q3.24,0,3.24,5.61V32.92h4.88V22.06a9.71,9.71,0,0,1,.92-4.86,3.18,3.18,0,0,1,2.93-1.51A2.65,2.65,0,0,1,212.65,17a9,9,0,0,1,.74,4.28V32.92h4.88v-13Q218.27,11.29,211.16,11.3Z"/><path d="M248.11,11.3a7.33,7.33,0,0,0-6.21,3.11,6.45,6.45,0,0,0-5.63-3.11,5.83,5.83,0,0,0-2.66.54,10.41,10.41,0,0,0-2.4,2V11.94h-4.86v21h4.86V22.06a9.51,9.51,0,0,1,.94-4.84,3.27,3.27,0,0,1,3-1.53c2.15,0,3.24,1.87,3.24,5.61V32.92h4.88V22.06a9.61,9.61,0,0,1,.92-4.86,3.14,3.14,0,0,1,2.92-1.51A2.65,2.65,0,0,1,249.59,17a8.89,8.89,0,0,1,.74,4.28V32.92h4.89v-13Q255.22,11.29,248.11,11.3Z"/><path d="M86.8,28.32a4.93,4.93,0,0,1-3,.86A5.12,5.12,0,0,1,80,27.67a6.33,6.33,0,0,1-1.68-4.12H93.37l0-1.15q0-5.2-2.69-8.14a9.46,9.46,0,0,0-7.34-3,9.51,9.51,0,0,0-7.39,3,11.66,11.66,0,0,0-2.76,8.07,11.34,11.34,0,0,0,2.85,8.08,9.91,9.91,0,0,0,7.56,3.06,13.11,13.11,0,0,0,3-.37,9.33,9.33,0,0,0,2.62-1.1,10.47,10.47,0,0,0,2.26-1.9,16.45,16.45,0,0,0,2-2.67H87.67A5.66,5.66,0,0,1,86.8,28.32ZM79.31,18a4.77,4.77,0,0,1,1.09-1.23A5,5,0,0,1,81.81,16a5.08,5.08,0,0,1,1.67-.27,4.65,4.65,0,0,1,4.9,3.88H78.62A5.71,5.71,0,0,1,79.31,18Z"/><path d="M131.52,15.69a5.9,5.9,0,0,1,5.79,3.88h5.1a10.64,10.64,0,0,0-2.9-5.05,11.5,11.5,0,0,0-15.94,0,10.43,10.43,0,0,0-3.27,7.75,10.91,10.91,0,0,0,3.2,8,10.73,10.73,0,0,0,7.93,3.27,11.18,11.18,0,0,0,8.06-3.21,10.44,10.44,0,0,0,2.86-4.83h-5.12a5.81,5.81,0,0,1-1.16,1.83,6.56,6.56,0,0,1-9.11,0,7.13,7.13,0,0,1-1.69-5A6.74,6.74,0,0,1,127,17.55,5.88,5.88,0,0,1,131.52,15.69Z"/><path d="M4.88,0H0V24.76q0,4.47,1.78,6.44a7.31,7.31,0,0,0,5.75,2.36,7.42,7.42,0,0,0,2.65-.49V29a5.48,5.48,0,0,1-1.32.17A3.54,3.54,0,0,1,5.77,27.9c-.58-.79-.86-2.23-.86-4.31V16.38h5.27V11.94H4.88Z"/><path d="M273.25,24q0,5.24-4.13,5.24T265,24v-12h-4.86V24.11a12.07,12.07,0,0,0,.61,4.36,7.5,7.5,0,0,0,2.14,3,10.2,10.2,0,0,0,12.5,0,7.29,7.29,0,0,0,2.1-3,13.48,13.48,0,0,0,.62-4.36V11.94h-4.85Z"/><path d="M289,11.3a8,8,0,0,0-5.75,2.51V11.94h-4.88v21h4.88V22.77q0-3.93,1-5.5a3.72,3.72,0,0,1,3.43-1.6,3.48,3.48,0,0,1,3.07,1.21c.57.79.86,2.22.86,4.29V32.92h4.88V20q0-4.44-1.77-6.41A7.21,7.21,0,0,0,289,11.3Z"/><path d="M299.28,6.33a3,3,0,0,0,2.23-.93,3,3,0,0,0,.93-2.24,3,3,0,0,0-.93-2.23A3.06,3.06,0,0,0,299.26,0,3,3,0,0,0,297,.93a3,3,0,0,0-.93,2.2A3,3,0,0,0,297,5.4,3,3,0,0,0,299.28,6.33Z"/><polygon points="328.01 11.94 322.05 23.96 315.65 11.94 310.01 11.94 309.71 11.94 309.71 4.25 304.89 4.25 304.89 11.94 301.7 11.94 300.85 11.94 296.84 11.94 296.84 32.92 301.7 32.92 301.7 16.38 304.89 16.38 304.89 32.92 309.71 32.92 309.71 16.38 312.41 16.38 319.33 29.18 311.3 44.22 316.85 44.22 333.5 11.94 328.01 11.94"/></g></g></svg>